<svg xmlns="http://www.w3.org/2000/svg" width="32" height="32" viewBox="0 0 512 512"><path fill="#ffc24f" d="M327.027 65.816L229.79 128.23l9.856 5.397l86.51-55.53l146.735 83.116l-84.165 54.023l4.1 2.244v6.848l65.923-42.316l13.836 7.838l-79.76 51.195v11.723l64.633-41.487l15.127 8.57l-79.76 51.195v11.723l64.633-41.487l15.127 8.57l-79.76 51.195v11.723l100.033-64.21l-24.828-14.062l24.827-15.937l-24.828-14.064l24.827-15.937l-23.537-13.333l23.842-15.305zm31.067 44.74c-21.038 10.556-49.06 12.342-68.79 4.383l-38.57 24.757l126.903 69.47l36.582-23.48c-14.41-11.376-13.21-28.35 2.942-41.67zM227.504 147.5l-70.688 46.094l135.61 78.066l1.33-.85c2.5-1.61 6.03-3.89 10.242-6.613c8.42-5.443 19.563-12.66 30.674-19.86c16.002-10.37 24.248-15.72 31.916-20.694zm115.467 1.17a8.583 14.437 82.068 0 1 .003 0a8.583 14.437 82.068 0 1 8.32 1.945a8.583 14.437 82.068 0 1-.87 12.282a8.583 14.437 82.068 0 1-20.273 1.29a8.583 14.437 82.068 0 1 .87-12.28a8.583 14.437 82.068 0 1 11.95-3.237m-218.423 47.115L19.143 263.44l23.537 13.333l-23.842 15.305l24.828 14.063l-24.828 15.938l24.828 14.063l-24.828 15.938l166.135 94.106L285.277 381.8v-11.72l-99.433 63.824L39.11 350.787l14.255-9.15l131.608 74.547L285.277 351.8v-11.72l-99.433 63.824L39.11 320.787l14.255-9.15l131.608 74.547L285.277 321.8v-11.72l-99.433 63.824L39.11 290.787l13.27-8.52l132.9 75.28l99.997-64.188v-5.05l-5.48-3.154l-93.65 60.11l-146.73-83.116l94.76-60.824l-9.63-5.543zm20.46 11.78l-46.92 30.115c14.41 11.374 13.21 28.348-2.942 41.67l59.068 33.46c21.037-10.557 49.057-12.342 68.787-4.384l45.965-29.504l-123.96-71.358zm229.817 32.19c-8.044 5.217-15.138 9.822-30.363 19.688a36222 36222 0 0 1-30.69 19.873c-4.217 2.725-7.755 5.01-10.278 6.632c-.09.06-.127.08-.215.137v85.924l71.547-48.088zm-200.99 17.48a8.583 14.437 82.068 0 1 8.32 1.947a8.583 14.437 82.068 0 1-.87 12.28a8.583 14.437 82.068 0 1-20.27 1.29a8.583 14.437 82.068 0 1 .87-12.28a8.583 14.437 82.068 0 1 11.95-3.236z"/></svg>